<svg width="807" height="807" viewBox="0 0 807 807" fill="none" xmlns="http://www.w3.org/2000/svg">
<g opacity="0.4">
<g opacity="0.6">
<path d="M577.732 235.868V264.207V291.933V322.434C577.732 329.182 574.585 335.545 569.22 339.64L516.151 380.15C508.273 386.164 497.316 386.059 489.555 379.894L438.871 339.642C433.701 335.536 430.688 329.294 430.688 322.691V235.868C430.688 223.913 440.379 214.222 452.334 214.222H556.086C568.041 214.222 577.732 223.913 577.732 235.868Z" fill="#B3CCF2"/>
</g>
<g opacity="0.6">
<path d="M779.26 651.625V679.963V707.69V738.191C779.26 744.939 776.112 751.302 770.748 755.397L717.678 795.907C709.8 801.921 698.843 801.815 691.082 795.651L640.399 755.399C635.228 751.293 632.215 745.051 632.215 738.448V651.625C632.215 639.67 641.906 629.979 653.861 629.979H757.613C769.568 629.979 779.26 639.67 779.26 651.625Z" fill="#B3CCF2"/>
</g>
<path opacity="0.2" d="M403.265 705.318C403.265 760.997 358.128 806.134 302.449 806.134C246.77 806.134 201.633 760.997 201.633 705.318C201.633 649.639 246.77 604.502 302.449 604.502C358.128 604.502 403.265 649.639 403.265 705.318ZM254.057 705.318C254.057 732.044 275.723 753.71 302.449 753.71C329.175 753.71 350.84 732.044 350.84 705.318C350.84 678.592 329.175 656.926 302.449 656.926C275.723 656.926 254.057 678.592 254.057 705.318Z" fill="#B3CCF2"/>
<path opacity="0.2" d="M806.526 504.08C806.526 559.759 761.39 604.896 705.71 604.896C650.031 604.896 604.895 559.759 604.895 504.08C604.895 448.401 650.031 403.264 705.71 403.264C761.39 403.264 806.526 448.401 806.526 504.08ZM657.319 504.08C657.319 530.806 678.985 552.471 705.71 552.471C732.436 552.471 754.102 530.806 754.102 504.08C754.102 477.354 732.436 455.688 705.71 455.688C678.985 455.688 657.319 477.354 657.319 504.08Z" fill="#B3CCF2"/>
<path d="M290.514 409.972C297.825 405.751 306.832 405.751 314.143 409.972L377.824 446.738C385.134 450.959 389.638 458.76 389.638 467.201V540.733C389.638 549.175 385.134 556.975 377.824 561.196L314.143 597.962C306.832 602.183 297.825 602.183 290.514 597.962L226.834 561.196C219.523 556.975 215.02 549.175 215.02 540.733V467.201C215.02 458.76 219.523 450.959 226.834 446.738L290.514 409.972Z" fill="#B3CCF2"/>
<path d="M693.776 208.34C701.087 204.12 710.094 204.12 717.405 208.34L781.085 245.106C788.396 249.327 792.9 257.128 792.9 265.569V339.101C792.9 347.543 788.396 355.344 781.085 359.564L717.405 396.33C710.094 400.551 701.087 400.551 693.776 396.33L630.096 359.564C622.785 355.344 618.281 347.543 618.281 339.101V265.569C618.281 257.128 622.785 249.327 630.096 245.106L693.776 208.34Z" fill="#B3CCF2"/>
<g opacity="0.2">
<path d="M369.706 214.224C384.711 214.224 392.225 232.366 381.615 242.976L314.484 310.107C307.907 316.684 297.243 316.684 290.665 310.107L223.535 242.976C212.924 232.366 220.439 214.224 235.444 214.224L369.706 214.224Z" fill="#B3CCF2"/>
<path d="M235.443 393.414C220.438 393.414 212.923 375.272 223.533 364.662L290.664 297.531C297.242 290.953 307.906 290.953 314.483 297.531L381.614 364.662C392.224 375.272 384.71 393.414 369.704 393.414H235.443Z" fill="#B3CCF2"/>
</g>
<path d="M437.076 806.133C422.07 806.133 414.556 787.992 425.166 777.381L492.297 710.25C498.874 703.673 509.538 703.673 516.116 710.25L583.247 777.381C593.857 787.992 586.342 806.133 571.337 806.133H437.076Z" fill="#B3CCF2"/>
<path d="M571.241 626.994C586.246 626.994 593.761 645.135 583.15 655.746L516.019 722.876C509.442 729.454 498.778 729.454 492.201 722.876L425.07 655.746C414.459 645.135 421.974 626.994 436.979 626.994L571.241 626.994Z" fill="#B3CCF2"/>
<path d="M436.978 806.183C421.973 806.183 414.458 788.041 425.068 777.431L492.199 710.3C498.777 703.723 509.441 703.723 516.018 710.3L583.149 777.431C593.759 788.041 586.245 806.183 571.24 806.183H436.978Z" fill="#B3CCF2"/>
<g opacity="0.4">
<ellipse cx="100.816" cy="653.728" rx="49.6203" ry="49.2265" fill="#B3CCF2"/>
<path d="M177.816 806.133C180.922 806.133 183.518 803.725 183.518 800.62C183.518 755.381 146.492 718.707 100.818 718.707C55.1435 718.707 18.1172 755.381 18.1172 800.62C18.1172 803.725 20.7138 806.133 23.8191 806.133H177.816Z" fill="#B3CCF2"/>
</g>
<g opacity="0.4">
<ellipse cx="705.71" cy="49.2265" rx="49.6203" ry="49.2265" fill="#B3CCF2"/>
<path d="M782.707 201.631C785.812 201.631 788.409 199.223 788.409 196.118C788.409 150.879 751.383 114.205 705.708 114.205C660.034 114.205 623.008 150.879 623.008 196.118C623.008 199.223 625.604 201.631 628.71 201.631H782.707Z" fill="#B3CCF2"/>
</g>
<g opacity="0.4">
<ellipse cx="504.081" cy="452.49" rx="49.6203" ry="49.2265" fill="#B3CCF2"/>
<path d="M581.082 604.895C584.187 604.895 586.784 602.487 586.784 599.382C586.784 554.142 549.758 517.469 504.083 517.469C458.409 517.469 421.383 554.142 421.383 599.382C421.383 602.487 423.979 604.895 427.085 604.895H581.082Z" fill="#B3CCF2"/>
</g>
</g>
</svg>
