<svg width="168" height="45" viewBox="0 0 168 45" fill="none" xmlns="http://www.w3.org/2000/svg">
<path d="M22.1311 10.1629V34.1591C22.1311 37.2661 21.1395 39.6789 19.1564 41.3976C17.2063 43.1494 14.4959 44.0253 11.0254 44.0253C7.68712 44.0253 5.02638 43.2155 3.04323 41.5959C1.06007 39.9764 0.0684945 37.7784 0.0684945 35.002V34.6549H6.76164V35.002C6.76164 35.9274 7.15827 36.6876 7.95154 37.2826C8.77785 37.8775 9.83553 38.175 11.1246 38.175C12.4797 38.175 13.554 37.8279 14.3472 37.1338C15.1405 36.4728 15.5371 35.5308 15.5371 34.3078V31.7297C13.9175 32.8866 11.9509 33.465 9.63722 33.465C6.72859 33.465 4.41491 32.6056 2.69618 30.8869C0.977441 29.1351 0.118073 26.7884 0.118073 23.8467V19.335C0.118073 16.3272 0.977441 13.9475 2.69618 12.1957C4.44796 10.4108 6.77817 9.51841 9.6868 9.51841C12.2649 9.51841 14.3968 10.2621 16.0825 11.7495L16.3304 10.1629H22.1311ZM11.1742 27.6643C12.0666 27.6643 12.8929 27.4825 13.6531 27.1189C14.4464 26.7553 15.0744 26.243 15.5371 25.582V17.7981C15.0413 17.137 14.4133 16.6247 13.6531 16.2611C12.8929 15.8645 12.0666 15.6662 11.1742 15.6662C9.78596 15.6662 8.69522 16.0463 7.90196 16.8065C7.1087 17.5667 6.71207 18.6244 6.71207 19.9796V23.3509C6.71207 24.7061 7.1087 25.7638 7.90196 26.524C8.69522 27.2842 9.78596 27.6643 11.1742 27.6643ZM50.5661 29.0029V35.002H47.2939C45.0133 35.002 43.278 34.3078 42.0881 32.9196C40.2372 34.7045 37.7417 35.5969 34.6017 35.5969C31.8914 35.5969 29.743 34.9358 28.1565 33.6137C26.603 32.2916 25.8263 30.4903 25.8263 28.2096C25.8263 26.1934 26.4873 24.5739 27.8094 23.3509C29.1315 22.128 31.1147 21.3512 33.7589 21.0207L40.6008 20.1283V19.0376C40.5347 16.7239 39.2291 15.567 36.684 15.567C35.3619 15.567 34.3538 15.848 33.6597 16.4099C32.9987 16.9718 32.6682 17.7816 32.6682 18.8392V19.1863H26.0742V18.8392C26.0742 15.9967 27.0327 13.7326 28.9497 12.0469C30.8668 10.3612 33.4779 9.51841 36.7832 9.51841C40.0885 9.51841 42.65 10.3612 44.4679 12.0469C46.2858 13.7326 47.1948 16.1289 47.1948 19.2359V27.2676C47.1948 28.4245 47.7732 29.0029 48.93 29.0029H50.5661ZM35.4942 30.2424C36.5849 30.2424 37.5765 30.0275 38.4689 29.5979C39.3613 29.1351 40.0719 28.5071 40.6008 27.7139V24.8383L35.1471 25.6811C34.2216 25.8133 33.511 26.0943 33.0152 26.524C32.5525 26.9206 32.3211 27.4329 32.3211 28.0609C32.3211 28.722 32.6021 29.2508 33.1639 29.6474C33.7589 30.0441 34.5356 30.2424 35.4942 30.2424ZM60.6349 35.002C58.3212 35.002 56.5199 34.407 55.2308 33.2171C53.9418 31.9942 53.2972 30.292 53.2972 28.1105V0.49505H59.8912V27.2181C59.8912 28.408 60.4862 29.0029 61.6761 29.0029H63.4113V35.002H60.6349ZM90.0259 29.0029V35.002H86.7537C84.4731 35.002 82.7378 34.3078 81.5479 32.9196C79.697 34.7045 77.2015 35.5969 74.0615 35.5969C71.3512 35.5969 69.2028 34.9358 67.6162 33.6137C66.0628 32.2916 65.286 30.4903 65.286 28.2096C65.286 26.1934 65.9471 24.5739 67.2692 23.3509C68.5913 22.128 70.5744 21.3512 73.2186 21.0207L80.0605 20.1283V19.0376C79.9944 16.7239 78.6888 15.567 76.1438 15.567C74.8217 15.567 73.8136 15.848 73.1195 16.4099C72.4584 16.9718 72.1279 17.7816 72.1279 18.8392V19.1863H65.5339V18.8392C65.5339 15.9967 66.4924 13.7326 68.4095 12.0469C70.3265 10.3612 72.9377 9.51841 76.243 9.51841C79.5482 9.51841 82.1098 10.3612 83.9277 12.0469C85.7456 13.7326 86.6545 16.1289 86.6545 19.2359V27.2676C86.6545 28.4245 87.2329 29.0029 88.3898 29.0029H90.0259ZM74.9539 30.2424C76.0446 30.2424 77.0362 30.0275 77.9286 29.5979C78.8211 29.1351 79.5317 28.5071 80.0605 27.7139V24.8383L74.6069 25.6811C73.6814 25.8133 72.9708 26.0943 72.475 26.524C72.0122 26.9206 71.7809 27.4329 71.7809 28.0609C71.7809 28.722 72.0618 29.2508 72.6237 29.6474C73.2186 30.0441 73.9954 30.2424 74.9539 30.2424ZM105.35 9.51841C108.093 9.51841 110.291 10.4108 111.944 12.1957C113.63 13.9475 114.473 16.3272 114.473 19.335V35.002H107.829V20.1283C107.829 18.7731 107.465 17.6989 106.738 16.9057C106.011 16.1124 105.036 15.7158 103.813 15.7158C102.888 15.7158 102.028 15.9141 101.235 16.3107C100.475 16.7073 99.8633 17.2692 99.4006 17.9964V35.002H92.8066V0.49505H99.4006V11.452C101.053 10.1629 103.036 9.51841 105.35 9.51841ZM143.236 29.0029V35.002H139.964C137.683 35.002 135.948 34.3078 134.758 32.9196C132.907 34.7045 130.412 35.5969 127.272 35.5969C124.561 35.5969 122.413 34.9358 120.826 33.6137C119.273 32.2916 118.496 30.4903 118.496 28.2096C118.496 26.1934 119.157 24.5739 120.479 23.3509C121.801 22.128 123.785 21.3512 126.429 21.0207L133.271 20.1283V19.0376C133.205 16.7239 131.899 15.567 129.354 15.567C128.032 15.567 127.024 15.848 126.33 16.4099C125.669 16.9718 125.338 17.7816 125.338 18.8392V19.1863H118.744V18.8392C118.744 15.9967 119.703 13.7326 121.62 12.0469C123.537 10.3612 126.148 9.51841 129.453 9.51841C132.758 9.51841 135.32 10.3612 137.138 12.0469C138.956 13.7326 139.865 16.1289 139.865 19.2359V27.2676C139.865 28.4245 140.443 29.0029 141.6 29.0029H143.236ZM128.164 30.2424C129.255 30.2424 130.246 30.0275 131.139 29.5979C132.031 29.1351 132.742 28.5071 133.271 27.7139V24.8383L127.817 25.6811C126.892 25.8133 126.181 26.0943 125.685 26.524C125.222 26.9206 124.991 27.4329 124.991 28.0609C124.991 28.722 125.272 29.2508 125.834 29.6474C126.429 30.0441 127.206 30.2424 128.164 30.2424ZM167.336 0.49505V35.002H161.436L161.237 33.465C159.519 34.8863 157.354 35.5969 154.743 35.5969C151.9 35.5969 149.603 34.688 147.851 32.8701C146.132 31.0522 145.273 28.6228 145.273 25.582V19.5333C145.273 17.5502 145.67 15.7984 146.463 14.278C147.256 12.7576 148.363 11.5842 149.785 10.7579C151.206 9.93157 152.842 9.51841 154.693 9.51841C157.106 9.51841 159.122 10.1629 160.742 11.452V0.49505H167.336ZM156.28 29.4491C157.205 29.4491 158.064 29.2508 158.858 28.8542C159.651 28.4575 160.279 27.9122 160.742 27.2181V17.8477C160.279 17.1866 159.651 16.6743 158.858 16.3107C158.064 15.9141 157.205 15.7158 156.28 15.7158C154.924 15.7158 153.85 16.0959 153.057 16.8561C152.297 17.6163 151.917 18.6574 151.917 19.9796V25.0862C151.917 26.4413 152.297 27.5155 153.057 28.3088C153.85 29.069 154.924 29.4491 156.28 29.4491Z" fill="white"/>
</svg>
