<svg width="48" height="49" viewBox="0 0 48 49" fill="none" xmlns="http://www.w3.org/2000/svg">
<rect x="3.59375" y="4.45312" width="40.1042" height="40.1042" rx="20.0521" fill="#EBEDFF"/>
<rect x="3.59375" y="4.45312" width="40.1042" height="40.1042" rx="20.0521" stroke="#F9F5FF" stroke-width="7.16146"/>
<path d="M30.1426 20.1042H17.6426C17.4768 20.1042 17.3178 20.0356 17.2006 19.9135C17.0834 19.7914 17.0176 19.6258 17.0176 19.4531C17.0176 19.2805 17.0834 19.1149 17.2006 18.9928C17.3178 18.8707 17.4768 18.8021 17.6426 18.8021H28.2676C28.4333 18.8021 28.5923 18.7335 28.7095 18.6114C28.8267 18.4893 28.8926 18.3237 28.8926 18.151C28.8926 17.9784 28.8267 17.8128 28.7095 17.6907C28.5923 17.5686 28.4333 17.5 28.2676 17.5H17.6426C17.1453 17.5 16.6684 17.7058 16.3168 18.0721C15.9651 18.4383 15.7676 18.9351 15.7676 19.4531V29.8698C15.7676 30.3878 15.9651 30.8846 16.3168 31.2509C16.6684 31.6171 17.1453 31.8229 17.6426 31.8229H30.1426C30.4741 31.8229 30.792 31.6857 31.0265 31.4415C31.2609 31.1974 31.3926 30.8662 31.3926 30.5208V21.4062C31.3926 21.0609 31.2609 20.7297 31.0265 20.4855C30.792 20.2414 30.4741 20.1042 30.1426 20.1042ZM27.3301 26.6146C27.1447 26.6146 26.9634 26.5573 26.8092 26.45C26.6551 26.3427 26.5349 26.1902 26.4639 26.0117C26.393 25.8333 26.3744 25.6369 26.4106 25.4475C26.4468 25.2581 26.5361 25.0841 26.6672 24.9475C26.7983 24.8109 26.9653 24.7179 27.1472 24.6802C27.329 24.6425 27.5175 24.6619 27.6888 24.7358C27.8601 24.8097 28.0066 24.9349 28.1096 25.0955C28.2126 25.2561 28.2676 25.4449 28.2676 25.638C28.2676 25.897 28.1688 26.1454 27.993 26.3286C27.8172 26.5117 27.5787 26.6146 27.3301 26.6146Z" fill="#0657A8"/>
</svg>
