<svg width="48" height="48" viewBox="0 0 48 48" fill="none" xmlns="http://www.w3.org/2000/svg">
<g filter="url(#filter0_bi_946_13975)">
<rect x="0.621094" y="1.00195" width="46.6207" height="45.4253" rx="5.97701" fill="#006B99"/>
<rect x="0.322243" y="0.703103" width="47.2184" height="46.023" rx="6.27586" stroke="#7BD1FF" stroke-width="0.597701"/>
<path fill-rule="evenodd" clip-rule="evenodd" d="M16.9533 26.1136C17.0019 26.1297 17.0518 26.1414 17.1025 26.1485C17.4224 26.8984 17.7405 27.6491 18.0567 28.4005C18.6254 29.7526 19.1987 31.1451 19.3242 31.5456C19.4813 32.0383 19.6464 32.3735 19.8273 32.6029C19.9211 32.7199 20.0285 32.8234 20.1552 32.9022C20.2211 32.9432 20.2917 32.9764 20.3654 33.0011C20.7272 33.1361 21.0574 33.0799 21.2643 33.0113C21.3857 32.97 21.5012 32.9133 21.608 32.8425L21.6136 32.8403L24.8087 30.8583L28.5001 33.6727C28.5544 33.7143 28.6132 33.7492 28.6765 33.7773C29.1197 33.9685 29.5494 34.036 29.9541 33.982C30.3566 33.9258 30.6766 33.7582 30.9151 33.5681C31.189 33.3484 31.4074 33.068 31.5528 32.7492L31.563 32.7244L31.5663 32.7154L31.5686 32.7109V32.7087L31.5697 32.7076C31.5894 32.6592 31.6045 32.6091 31.615 32.558L34.9842 15.6569C34.9948 15.6028 35.0001 15.5478 35 15.4927C35 14.9978 34.8123 14.5264 34.3725 14.2419C33.9949 13.9978 33.5754 13.9865 33.3097 14.0068C33.0248 14.0293 32.7603 14.099 32.5828 14.1552C32.4834 14.1866 32.3853 14.2218 32.2888 14.261L32.2764 14.2666L13.3794 21.6412L13.3772 21.6423C13.3132 21.6657 13.2503 21.6916 13.1884 21.7199C13.0385 21.787 12.8948 21.8667 12.7587 21.9584C12.5021 22.1328 11.9108 22.6119 12.0114 23.4038C12.0905 24.0338 12.5247 24.4218 12.7904 24.6086C12.9351 24.7109 13.073 24.784 13.1748 24.8324C13.22 24.8549 13.3173 24.8932 13.3591 24.9112L13.3704 24.9145L16.9533 26.1136ZM32.9378 15.8189H32.9355C32.9258 15.8232 32.916 15.8273 32.9061 15.8313L13.9866 23.216C13.9768 23.2199 13.967 23.2237 13.9572 23.2272L13.9459 23.2306C13.9113 23.2441 13.8774 23.2591 13.8441 23.2756C13.8756 23.2935 13.908 23.3097 13.9413 23.324L17.4937 24.5141C17.5572 24.5354 17.6179 24.5641 17.6746 24.5996L29.4069 17.766L29.4182 17.7604C29.4638 17.7329 29.5105 17.7073 29.5584 17.6839C29.6398 17.6423 29.7698 17.5816 29.9168 17.5366C30.0186 17.5051 30.3204 17.4162 30.646 17.5208C30.8187 17.575 30.9727 17.6764 31.0902 17.8134C31.2078 17.9505 31.2842 18.1176 31.3108 18.2959C31.3529 18.4519 31.3541 18.6161 31.3142 18.7728C31.2351 19.0821 31.018 19.3228 30.8202 19.5073C30.6506 19.6648 28.4504 21.775 26.2808 23.8583L23.3265 26.6929L22.8008 27.1991L29.4397 32.2632C29.5293 32.3007 29.6266 32.3161 29.7235 32.3082C29.7722 32.3016 29.8181 32.2814 29.8557 32.2497C29.9016 32.2112 29.9409 32.1657 29.9722 32.1148L29.9745 32.1136L33.2419 15.721C33.139 15.7457 33.0381 15.778 32.94 15.8178L32.9378 15.8189ZM23.3717 29.7604L22.0467 28.7503L21.7256 30.7807L23.3717 29.7604ZM20.8313 26.7458L22.1484 25.4803L25.1027 22.6434L26.2028 21.5883L18.8312 25.8819L18.8708 25.9741C19.3357 27.0669 19.7955 28.1617 20.2501 29.2587L20.5701 27.234C20.599 27.0462 20.6911 26.8748 20.8313 26.7458Z" fill="white"/>
</g>
<defs>
<filter id="filter0_bi_946_13975" x="-5.11679" y="-4.73593" width="58.0969" height="56.9016" filterUnits="userSpaceOnUse" color-interpolation-filters="sRGB">
<feFlood flood-opacity="0" result="BackgroundImageFix"/>
<feGaussianBlur in="BackgroundImageFix" stdDeviation="2.57012"/>
<feComposite in2="SourceAlpha" operator="in" result="effect1_backgroundBlur_946_13975"/>
<feBlend mode="normal" in="SourceGraphic" in2="effect1_backgroundBlur_946_13975" result="shape"/>
<feColorMatrix in="SourceAlpha" type="matrix" values="0 0 0 0 0 0 0 0 0 0 0 0 0 0 0 0 0 0 127 0" result="hardAlpha"/>
<feOffset dy="2.3908"/>
<feGaussianBlur stdDeviation="9.56322"/>
<feComposite in2="hardAlpha" operator="arithmetic" k2="-1" k3="1"/>
<feColorMatrix type="matrix" values="0 0 0 0 0.931382 0 0 0 0 0.949006 0 0 0 0 0.959733 0 0 0 0.62 0"/>
<feBlend mode="normal" in2="shape" result="effect2_innerShadow_946_13975"/>
</filter>
</defs>
</svg>
