<svg width="48" height="48" viewBox="0 0 48 48" fill="none" xmlns="http://www.w3.org/2000/svg">
<rect x="3.59375" y="3.68848" width="40.1042" height="40.1042" rx="20.0521" fill="#EBEDFF"/>
<rect x="3.59375" y="3.68848" width="40.1042" height="40.1042" rx="20.0521" stroke="#F9F5FF" stroke-width="7.16146"/>
<g clip-path="url(#clip0_1296_333)">
<path d="M23.4379 27.4242H24.1001V26.6876C24.5263 26.6263 24.888 26.4498 25.1852 26.1582C25.4823 25.8666 25.6306 25.4907 25.63 25.0303C25.63 24.6313 25.4778 24.2973 25.1733 24.0285C24.8689 23.7596 24.5187 23.5411 24.1229 23.3729V21.6695C24.2752 21.7155 24.4009 21.7923 24.5002 21.8997C24.5994 22.0071 24.6716 22.1376 24.7166 22.291L25.5387 21.9457C25.4321 21.6235 25.2494 21.3666 24.9906 21.1751C24.7318 20.9835 24.4426 20.8568 24.1229 20.7948V20.0582H23.4379V20.7718C23.0117 20.8178 22.6503 20.9753 22.3537 21.2441C22.0572 21.513 21.9086 21.8696 21.908 22.314C21.908 22.7284 22.0642 23.0737 22.3766 23.3499C22.6889 23.6261 23.0427 23.8486 23.4379 24.0174V25.8359C23.1943 25.7592 22.9888 25.6288 22.8214 25.4446C22.6539 25.2605 22.5398 25.0456 22.4789 24.8001L21.6797 25.1454C21.8014 25.5751 22.0146 25.928 22.319 26.2042C22.6235 26.4805 22.9964 26.6493 23.4379 26.7107V27.4242ZM24.1229 25.8129V24.2937C24.2904 24.3704 24.439 24.4625 24.5687 24.5699C24.6984 24.6773 24.7629 24.8384 24.7623 25.0533C24.7623 25.2988 24.7014 25.4716 24.5796 25.5717C24.4578 25.6717 24.3056 25.7521 24.1229 25.8129ZM23.4379 23.0737C23.2704 22.9969 23.1182 22.9049 22.9812 22.7974C22.8442 22.69 22.7757 22.5289 22.7757 22.314C22.7757 22.0992 22.8442 21.9417 22.9812 21.8417C23.1182 21.7416 23.2704 21.6766 23.4379 21.6465V23.0737ZM20.0128 30.1865C18.2317 30.1865 16.721 29.5613 15.4806 28.3109C14.2402 27.0605 13.6197 25.5373 13.6191 23.7412C13.6191 21.9457 14.2396 20.4228 15.4806 19.1724C16.7216 17.922 18.2323 17.2965 20.0128 17.2959H27.3197C29.1008 17.2959 30.6118 17.9214 31.8528 19.1724C33.0938 20.4234 33.714 21.9463 33.7133 23.7412C33.7133 25.5367 33.0932 27.0599 31.8528 28.3109C30.6124 29.5619 29.1014 30.1871 27.3197 30.1865H20.0128Z" fill="#0657A8"/>
</g>
<defs>
<clipPath id="clip0_1296_333">
<rect width="20.0521" height="20.0521" fill="white" transform="translate(13.6191 13.7148)"/>
</clipPath>
</defs>
</svg>
