<svg width="48" height="49" viewBox="0 0 48 49" fill="none" xmlns="http://www.w3.org/2000/svg">
<rect x="3.59375" y="4.50488" width="40.1042" height="40.1042" rx="20.0521" fill="#EBEDFF"/>
<rect x="3.59375" y="4.50488" width="40.1042" height="40.1042" rx="20.0521" stroke="#F9F5FF" stroke-width="7.16146"/>
<path d="M23.0601 16.42L18.0471 18.2998C17.3954 18.5505 16.9609 19.1688 16.9609 19.8706V23.7975C16.9609 27.8329 19.5761 31.6261 23.1687 32.7791C23.4779 32.8794 23.8121 32.8794 24.1212 32.7791C27.7139 31.6261 30.329 27.8413 30.329 23.7975V19.8706C30.3284 19.5306 30.2241 19.1989 30.03 18.9197C29.836 18.6405 29.5613 18.4272 29.2428 18.3082L24.2298 16.4283C23.8538 16.2779 23.4361 16.2779 23.0601 16.42Z" fill="#0657A8"/>
</svg>
