<svg width="48" height="48" viewBox="0 0 48 48" fill="none" xmlns="http://www.w3.org/2000/svg">
<rect x="3.59375" y="3.78125" width="40.1042" height="40.1042" rx="20.0521" fill="#EBEDFF"/>
<rect x="3.59375" y="3.78125" width="40.1042" height="40.1042" rx="20.0521" stroke="#F9F5FF" stroke-width="7.16146"/>
<path d="M19.9137 25.5911V20.0913C19.9137 19.8569 19.9933 19.6607 20.1525 19.5024C20.3117 19.3442 20.5085 19.2648 20.7429 19.2642H21.5721C21.8071 19.2642 22.0042 19.3436 22.1634 19.5024C22.3226 19.6612 22.4019 19.8575 22.4013 20.0913V25.5911L22.2977 25.4877C21.9798 25.1845 21.5998 25.0329 21.1575 25.0329C20.7153 25.0329 20.3352 25.1845 20.0173 25.4877L19.9137 25.5911ZM24.0598 26.8317V16.7831C24.0598 16.5488 24.1394 16.3525 24.2986 16.1942C24.4578 16.036 24.6546 15.9566 24.889 15.9561H25.7182C25.9532 15.9561 26.1503 16.0355 26.3095 16.1942C26.4687 16.353 26.548 16.5493 26.5475 16.7831V24.3506L24.0598 26.8317ZM15.7676 29.685V23.3995C15.7676 23.1651 15.8472 22.9688 16.0064 22.8106C16.1656 22.6524 16.3624 22.573 16.5968 22.5724H17.426C17.661 22.5724 17.858 22.6518 18.0173 22.8106C18.1765 22.9694 18.2558 23.1657 18.2552 23.3995V27.2039L15.7676 29.685ZM17.7577 31.7113C17.3984 31.7113 17.146 31.5425 17.0006 31.2051C16.8552 30.8677 16.9141 30.5677 17.1773 30.3053L20.5771 26.9144C20.7291 26.7628 20.9123 26.6801 21.1268 26.6663C21.3413 26.6525 21.5312 26.7214 21.6965 26.873L24.0598 28.8993L28.7034 24.2679H28.2059C27.971 24.2679 27.7741 24.1885 27.6155 24.0297C27.4568 23.8709 27.3772 23.6746 27.3767 23.4408C27.3767 23.2065 27.4563 23.0102 27.6155 22.852C27.7747 22.6937 27.9715 22.6143 28.2059 22.6138H30.6936C30.9285 22.6138 31.1256 22.6932 31.2848 22.852C31.444 23.0107 31.5233 23.207 31.5228 23.4408V25.9219C31.5228 26.1563 31.4432 26.3528 31.284 26.5116C31.1248 26.6704 30.928 26.7495 30.6936 26.749C30.4586 26.749 30.2618 26.6696 30.1032 26.5108C29.9445 26.352 29.8649 26.1557 29.8643 25.9219V25.4257L24.6817 30.5947C24.5297 30.7464 24.3464 30.8291 24.1319 30.8429C23.9174 30.8566 23.7275 30.7877 23.5623 30.6361L21.199 28.6098L18.3382 31.4631C18.2691 31.5321 18.1828 31.5908 18.0794 31.6393C17.9761 31.6878 17.8688 31.7118 17.7577 31.7113Z" fill="#0657A8"/>
</svg>
