<svg width="48" height="48" viewBox="0 0 48 48" fill="none" xmlns="http://www.w3.org/2000/svg">
<rect x="3.59375" y="4.17773" width="40.1042" height="40.1042" rx="20.0521" fill="#EBEDFF"/>
<rect x="3.59375" y="4.17773" width="40.1042" height="40.1042" rx="20.0521" stroke="#F9F5FF" stroke-width="7.16146"/>
<path d="M16.5513 22.4935L17.3164 22.0447V23.7381H30.5782V22.06L31.3331 22.4935C31.4496 22.5545 31.5853 22.5681 31.7116 22.5314C31.838 22.4948 31.9453 22.4107 32.0111 22.2968C32.0769 22.1829 32.0962 22.048 32.0649 21.9202C32.0336 21.7924 31.9542 21.6817 31.8431 21.6111L23.9473 17.0664L16.0412 21.6111C15.9803 21.643 15.9264 21.6869 15.8828 21.7401C15.8393 21.7934 15.8069 21.8549 15.7878 21.921C15.7686 21.987 15.763 22.0563 15.7713 22.1246C15.7796 22.1929 15.8016 22.2588 15.836 22.3183C15.8705 22.3779 15.9166 22.4299 15.9716 22.4711C16.0267 22.5124 16.0895 22.5421 16.1563 22.5585C16.2231 22.5749 16.2925 22.5775 16.3604 22.5664C16.4283 22.5552 16.4932 22.5304 16.5513 22.4935ZM23.8708 19.2036C23.9328 19.1678 24.0032 19.1489 24.0748 19.1489C24.1464 19.1489 24.2168 19.1678 24.2788 19.2036L27.7065 21.1878H26.0641L24.0748 20.0452L22.0855 21.1878H20.4482L23.8708 19.2036Z" fill="#0657A8"/>
<path d="M31.5227 29.3497H31.0892V28.9161C31.0892 28.7605 31.0274 28.6113 30.9174 28.5013C30.8073 28.3913 30.6582 28.3295 30.5026 28.3295H29.0489V24.5703H27.0086V28.3295H24.9683V24.5703H22.9281V28.3295H20.8878V24.5703H18.8475V28.3295H17.3938C17.2383 28.3295 17.0891 28.3913 16.9791 28.5013C16.869 28.6113 16.8072 28.7605 16.8072 28.9161V29.3497H16.3737C16.2181 29.3497 16.0689 29.4115 15.9589 29.5215C15.8489 29.6315 15.7871 29.7807 15.7871 29.9362V31.3899H32.1093V29.9362C32.1093 29.7807 32.0475 29.6315 31.9375 29.5215C31.8275 29.4115 31.6783 29.3497 31.5227 29.3497Z" fill="#0657A8"/>
</svg>
