<svg width="10" height="10" viewBox="0 0 10 10" fill="none" xmlns="http://www.w3.org/2000/svg">
<path fill-rule="evenodd" clip-rule="evenodd" d="M4.60227 2.1875C4.60227 2.01491 4.74218 1.875 4.91477 1.875H9.0625C9.58027 1.875 10 2.29473 10 2.8125V9.0625C10 9.58027 9.58027 10 9.0625 10H2.8125C2.29473 10 1.875 9.58027 1.875 9.0625V4.91477C1.875 4.74218 2.01491 4.60227 2.1875 4.60227C2.36009 4.60227 2.5 4.74218 2.5 4.91477V9.0625C2.5 9.23509 2.63991 9.375 2.8125 9.375H9.0625C9.23509 9.375 9.375 9.23509 9.375 9.0625V2.8125C9.375 2.63991 9.23509 2.5 9.0625 2.5H4.91477C4.74218 2.5 4.60227 2.36009 4.60227 2.1875Z" fill="#5D616D"/>
<path fill-rule="evenodd" clip-rule="evenodd" d="M0 0.3125C0 0.139911 0.139911 0 0.3125 0H3.4375C3.61009 0 3.75 0.139911 3.75 0.3125C3.75 0.485089 3.61009 0.625 3.4375 0.625H1.06694L6.15847 5.71653C6.28051 5.83857 6.28051 6.03643 6.15847 6.15847C6.03643 6.28051 5.83857 6.28051 5.71653 6.15847L0.625 1.06694V3.4375C0.625 3.61009 0.485089 3.75 0.3125 3.75C0.139911 3.75 0 3.61009 0 3.4375V0.3125Z" fill="#5D616D"/>
</svg>
