<svg width="10" height="12" viewBox="0 0 10 12" fill="none" xmlns="http://www.w3.org/2000/svg">
<path id="Vector" d="M9.41731 0H2.06167C2.00129 0 1.95188 0.0482143 1.95188 0.107143V0.857143C1.95188 0.916071 2.00129 0.964286 2.06167 0.964286H8.86838V10.1786C8.86838 10.2375 8.91778 10.2857 8.97816 10.2857H9.74666C9.80705 10.2857 9.85645 10.2375 9.85645 10.1786V0.428571C9.85645 0.191518 9.66021 0 9.41731 0ZM7.66074 1.71429H0.634455C0.391554 1.71429 0.195312 1.9058 0.195312 2.14286V9.25045C0.195312 9.36429 0.241971 9.47277 0.324311 9.55313L2.70254 11.8741C2.73273 11.9036 2.76704 11.9277 2.80409 11.9478V11.9732H2.86173C2.90976 11.9906 2.96054 12 3.01269 12H7.66074C7.90364 12 8.09988 11.8085 8.09988 11.5714V2.14286C8.09988 1.9058 7.90364 1.71429 7.66074 1.71429ZM3.24186 11.1429H3.23912L1.18338 9.13661V9.13393H3.24186V11.1429Z" fill="#53545A"/>
</svg>
