<svg width="18" height="16" viewBox="0 0 18 16" fill="none" xmlns="http://www.w3.org/2000/svg">
<g id="Group 33415">
<g id="Group 33414">
<g id="Group 33413">
<circle id="Ellipse 346" cx="10.7414" cy="8.76579" r="6.77262" fill="url(#paint0_radial_3029_108941)"/>
<g id="Mask group">
<mask id="mask0_3029_108941" style="mask-type:alpha" maskUnits="userSpaceOnUse" x="3" y="1" width="15" height="15">
<circle id="Ellipse 348" cx="10.7414" cy="8.76481" r="6.77262" fill="black"/>
</mask>
<g mask="url(#mask0_3029_108941)">
<ellipse id="Ellipse 347" cx="11.1882" cy="8.4372" rx="6.22724" ry="6.22724" fill="url(#paint1_radial_3029_108941)"/>
<ellipse id="Ellipse 349" cx="11.6532" cy="8.1102" rx="5.72153" ry="5.72153" fill="url(#paint2_radial_3029_108941)"/>
</g>
</g>
</g>
<path id="Union" d="M0.239644 7.72935C1.8563 1.96822 9.47832 -4.72066e-05 12.1358 8.49155e-10C12.1303 0.0446592 12.1246 0.0892173 12.1186 0.133673C12.0293 0.800514 11.883 1.44434 11.6955 2.06037C10.3943 6.33657 7.10978 9.27362 7.10978 9.27362L7.80246 6.55892C5.68151 7.69447 3.80167 10.9152 5.5145 13.0728C5.51455 13.0729 5.51461 13.0729 5.51466 13.073C5.56434 13.1356 5.61704 13.1972 5.67284 13.2579C5.67291 13.258 5.67299 13.2581 5.67307 13.2582C5.72607 13.3158 5.78187 13.3726 5.84054 13.4284L5.83223 13.4315C7.06612 14.7297 8.8095 15.539 10.7419 15.539C10.829 15.539 10.9156 15.5374 11.0019 15.5341C10.2339 15.7576 9.33962 15.9137 8.25872 15.9846C6.30527 16.1127 4.11939 15.4074 2.97772 14.6664C0.349928 12.9609 -0.460372 10.224 0.239644 7.72935Z" fill="url(#paint3_radial_3029_108941)"/>
<g id="Mask group_2">
<mask id="mask1_3029_108941" style="mask-type:alpha" maskUnits="userSpaceOnUse" x="0" y="0" width="13" height="16">
<path id="Union_2" d="M0.240753 7.72935C1.85741 1.96822 9.47943 -4.72066e-05 12.1369 8.49155e-10C12.1314 0.0446592 12.1257 0.0892173 12.1198 0.133673C12.0304 0.800514 11.8841 1.44434 11.6966 2.06037C10.3954 6.33657 7.11089 9.27362 7.11089 9.27362L7.80357 6.55892C5.68262 7.69447 3.80278 10.9152 5.51561 13.0728C5.51566 13.0729 5.51572 13.0729 5.51577 13.073C5.56545 13.1356 5.61815 13.1972 5.67395 13.2579C5.67403 13.258 5.6741 13.2581 5.67418 13.2582C5.72718 13.3158 5.78298 13.3726 5.84165 13.4284L5.83334 13.4315C7.06723 14.7297 8.81061 15.539 10.743 15.539C10.8301 15.539 10.9167 15.5374 11.003 15.5341C10.235 15.7576 9.34073 15.9137 8.25983 15.9846C6.30638 16.1127 3.7069 15.4011 2.56809 14.6557C0.737781 13.4578 -0.548326 10.5414 0.240753 7.72935Z" fill="#FC01E3"/>
</mask>
<g mask="url(#mask1_3029_108941)">
<path id="Union_3" d="M2.41745 7.47252C4.03411 1.71138 11.6561 -0.256883 14.3136 -0.256836C14.3081 -0.212177 14.3024 -0.167619 14.2965 -0.123163C14.2071 0.543678 14.0608 1.1875 13.8733 1.80354C12.5721 6.07973 9.28759 9.01679 9.28759 9.01679L9.65309 7.80486C7.53215 8.94042 5.97948 10.6584 7.69231 12.816C7.69236 12.816 7.69242 12.8161 7.69247 12.8162C7.74215 12.8787 7.79485 12.9404 7.85065 13.0011C7.85072 13.0012 7.8508 13.0013 7.85088 13.0014C7.90388 13.059 7.95968 13.1158 8.01834 13.1716L8.01004 13.1747C9.24393 14.4729 10.9873 15.2822 12.9197 15.2822C13.0068 15.2822 13.0934 15.2805 13.1797 15.2773C12.4117 15.5007 11.5174 15.6569 10.4365 15.7277C8.48308 15.8558 5.8836 15.1443 4.74479 14.3989C2.56326 12.971 1.56734 10.502 2.41745 7.47252Z" fill="url(#paint4_radial_3029_108941)"/>
</g>
</g>
</g>
<g id="GXT">
<path d="M8.08056 9.8812C8.04658 9.61574 8.06909 9.3632 8.14811 9.12357C8.22712 8.88395 8.35698 8.67736 8.53767 8.50381C8.71762 8.32786 8.93851 8.19981 9.20034 8.11964C9.42373 8.05125 9.6249 8.03038 9.80383 8.05704C9.98443 8.08056 10.1338 8.14782 10.2518 8.2588C10.3723 8.36905 10.4568 8.51655 10.5055 8.70132L9.66239 8.95946C9.62533 8.91563 9.57633 8.8886 9.51539 8.87835C9.45372 8.86571 9.38205 8.87189 9.30038 8.89689C9.14664 8.94396 9.03358 9.03375 8.96118 9.16626C8.89118 9.29804 8.86787 9.45361 8.89127 9.63299C8.90132 9.70873 8.91333 9.76942 8.9273 9.81506C9.01262 10.0937 9.21741 10.1834 9.54169 10.0841C9.72665 10.0275 9.86599 9.90336 9.95972 9.71177L9.32197 9.90703L9.24605 9.31155L10.5468 8.91331L10.6512 9.75623C10.5651 9.99012 10.4338 10.209 10.2571 10.4128C10.0797 10.6143 9.84208 10.7606 9.54422 10.8518C9.31363 10.9224 9.10378 10.9407 8.9147 10.9066C8.72562 10.8725 8.56468 10.7931 8.43187 10.6682C8.30073 10.5402 8.2039 10.3741 8.14139 10.17C8.11197 10.0739 8.0917 9.97763 8.08056 9.8812Z" fill="white"/>
<path d="M12.543 8.53465L13.5993 9.59056L12.6516 9.88069L12.0992 9.32472L11.7941 10.1432L10.8825 10.4223L11.55 8.77956L10.5158 7.74447L11.4634 7.45434L11.9974 7.98839L12.2886 7.20171L13.2001 6.92262L12.543 8.53465Z" fill="white"/>
<path d="M15.4509 6.2335L15.5334 6.90185L14.856 7.10924L15.1042 9.1298L14.3043 9.3747L14.0561 7.35414L13.3859 7.55933L13.3035 6.89099L15.4509 6.2335Z" fill="white"/>
</g>
</g>
<defs>
<radialGradient id="paint0_radial_3029_108941" cx="0" cy="0" r="1" gradientUnits="userSpaceOnUse" gradientTransform="translate(15.273 8.50797) rotate(138.582) scale(14.2545)">
<stop stop-color="#30003D"/>
<stop offset="1" stop-color="#3F004F"/>
</radialGradient>
<radialGradient id="paint1_radial_3029_108941" cx="0" cy="0" r="1" gradientUnits="userSpaceOnUse" gradientTransform="translate(14.7679 5.61115) rotate(132.934) scale(14.9796)">
<stop stop-color="#5E0075"/>
<stop offset="0.868429" stop-color="#3C004A"/>
</radialGradient>
<radialGradient id="paint2_radial_3029_108941" cx="0" cy="0" r="1" gradientUnits="userSpaceOnUse" gradientTransform="translate(14.0132 4.18347) rotate(127.181) scale(14.9972)">
<stop stop-color="#70008D"/>
<stop offset="1" stop-color="#500065" stop-opacity="0.54"/>
</radialGradient>
<radialGradient id="paint3_radial_3029_108941" cx="0" cy="0" r="1" gradientUnits="userSpaceOnUse" gradientTransform="translate(14.7479 -2.03212) rotate(111.094) scale(25.4863 19.3313)">
<stop stop-color="#FF3AEB"/>
<stop offset="0.321505" stop-color="#FF2BEA"/>
<stop offset="0.86849" stop-color="#FF29E5"/>
</radialGradient>
<radialGradient id="paint4_radial_3029_108941" cx="0" cy="0" r="1" gradientUnits="userSpaceOnUse" gradientTransform="translate(11.1008 3.9178) rotate(107.816) scale(15.9774 12.1814)">
<stop stop-color="#BF03B8"/>
<stop offset="0.5" stop-color="#D800C2"/>
<stop offset="1" stop-color="#D300BE" stop-opacity="0"/>
</radialGradient>
</defs>
</svg>
