<svg width="14" height="12" viewBox="0 0 14 12" fill="none" xmlns="http://www.w3.org/2000/svg">
<path id="Vector" d="M0.371094 5.33333V0H6.09621V5.33333H0.371094ZM2.51801 2V3.33333H3.94929V2H2.51801ZM7.52749 5.33333V0H13.2526V5.33333H7.52749ZM9.67441 2V3.33333H11.1057V2H9.67441ZM0.371094 6.66667V12H6.09621V6.66667H0.371094ZM3.94929 8.66667V10H2.51801V8.66667H3.94929ZM9.67441 6.66667H7.52749V8H9.67441V10.6667H8.95877V9.33333H7.52749V12H10.3901V10.6667H11.8213V12H13.2526V10H11.8213V9.33333H11.1057V8.66667H13.2526V6.66667H11.1057V8H9.67441V6.66667Z" fill="#53545A"/>
</svg>
